<svg id="visual" viewBox="0 0 1500 300" width="1500" height="300" xmlns="http://www.w3.org/2000/svg" xmlns:xlink="http://www.w3.org/1999/xlink" version="1.1"><path d="M0 251L8 258C16 265 32 279 48.2 286.7C64.3 294.3 80.7 295.7 96.8 296.3C113 297 129 297 145.2 294.7C161.3 292.3 177.7 287.7 193.8 284.5C210 281.3 226 279.7 242 276.7C258 273.7 274 269.3 290.2 272.3C306.3 275.3 322.7 285.7 338.8 289.5C355 293.3 371 290.7 387 286.5C403 282.3 419 276.7 435.2 275.5C451.3 274.3 467.7 277.7 483.8 280.8C500 284 516 287 532.2 280.5C548.3 274 564.7 258 580.8 257.7C597 257.3 613 272.7 629 279.2C645 285.7 661 283.3 677.2 277.3C693.3 271.3 709.7 261.7 725.8 255.5C742 249.3 758 246.7 774.2 251.2C790.3 255.7 806.7 267.3 822.8 274.8C839 282.3 855 285.7 871 285.5C887 285.3 903 281.7 919.2 280.3C935.3 279 951.7 280 967.8 276C984 272 1000 263 1016.2 262.7C1032.3 262.3 1048.7 270.7 1064.8 277.3C1081 284 1097 289 1113 288.2C1129 287.3 1145 280.7 1161.2 277.7C1177.3 274.7 1193.7 275.3 1209.8 270.5C1226 265.7 1242 255.3 1258 256.2C1274 257 1290 269 1306.2 273C1322.3 277 1338.7 273 1354.8 268C1371 263 1387 257 1403.2 252.3C1419.3 247.7 1435.7 244.3 1451.8 242.7C1468 241 1484 241 1492 241L1500 241L1500 301L1492 301C1484 301 1468 301 1451.8 301C1435.7 301 1419.3 301 1403.2 301C1387 301 1371 301 1354.8 301C1338.7 301 1322.3 301 1306.2 301C1290 301 1274 301 1258 301C1242 301 1226 301 1209.8 301C1193.7 301 1177.3 301 1161.2 301C1145 301 1129 301 1113 301C1097 301 1081 301 1064.8 301C1048.7 301 1032.3 301 1016.2 301C1000 301 984 301 967.8 301C951.7 301 935.3 301 919.2 301C903 301 887 301 871 301C855 301 839 301 822.8 301C806.7 301 790.3 301 774.2 301C758 301 742 301 725.8 301C709.7 301 693.3 301 677.2 301C661 301 645 301 629 301C613 301 597 301 580.8 301C564.7 301 548.3 301 532.2 301C516 301 500 301 483.8 301C467.7 301 451.3 301 435.2 301C419 301 403 301 387 301C371 301 355 301 338.8 301C322.7 301 306.3 301 290.2 301C274 301 258 301 242 301C226 301 210 301 193.8 301C177.7 301 161.3 301 145.2 301C129 301 113 301 96.8 301C80.7 301 64.3 301 48.2 301C32 301 16 301 8 301L0 301Z" fill="#413429" stroke-linecap="round" stroke-linejoin="miter"></path></svg>