<svg id="visual" viewBox="0 0 1500 300" width="1500" height="300" xmlns="http://www.w3.org/2000/svg" xmlns:xlink="http://www.w3.org/1999/xlink" version="1.1"><path d="M0 23L8 23.5C16 24 32 25 48.2 22.3C64.3 19.7 80.7 13.3 96.8 13.2C113 13 129 19 145.2 20.8C161.3 22.7 177.7 20.3 193.8 18.3C210 16.3 226 14.7 242 18.2C258 21.7 274 30.3 290.2 36.7C306.3 43 322.7 47 338.8 45C355 43 371 35 387 28.2C403 21.3 419 15.7 435.2 11.3C451.3 7 467.7 4 483.8 7C500 10 516 19 532.2 20.7C548.3 22.3 564.7 16.7 580.8 14.5C597 12.3 613 13.7 629 15.3C645 17 661 19 677.2 21.5C693.3 24 709.7 27 725.8 28.3C742 29.7 758 29.3 774.2 33.8C790.3 38.3 806.7 47.7 822.8 46.7C839 45.7 855 34.3 871 27.7C887 21 903 19 919.2 23.3C935.3 27.7 951.7 38.3 967.8 37C984 35.7 1000 22.3 1016.2 22.3C1032.3 22.3 1048.7 35.7 1064.8 35C1081 34.3 1097 19.7 1113 12C1129 4.3 1145 3.7 1161.2 4.7C1177.3 5.7 1193.7 8.3 1209.8 10.3C1226 12.3 1242 13.7 1258 18.2C1274 22.7 1290 30.3 1306.2 34.5C1322.3 38.7 1338.7 39.3 1354.8 37.5C1371 35.7 1387 31.3 1403.2 26.2C1419.3 21 1435.7 15 1451.8 14.7C1468 14.3 1484 19.7 1492 22.3L1500 25L1500 0L1492 0C1484 0 1468 0 1451.8 0C1435.7 0 1419.3 0 1403.2 0C1387 0 1371 0 1354.8 0C1338.7 0 1322.3 0 1306.2 0C1290 0 1274 0 1258 0C1242 0 1226 0 1209.8 0C1193.7 0 1177.3 0 1161.2 0C1145 0 1129 0 1113 0C1097 0 1081 0 1064.8 0C1048.7 0 1032.3 0 1016.2 0C1000 0 984 0 967.8 0C951.7 0 935.3 0 919.2 0C903 0 887 0 871 0C855 0 839 0 822.8 0C806.7 0 790.3 0 774.2 0C758 0 742 0 725.8 0C709.7 0 693.3 0 677.2 0C661 0 645 0 629 0C613 0 597 0 580.8 0C564.7 0 548.3 0 532.2 0C516 0 500 0 483.8 0C467.7 0 451.3 0 435.2 0C419 0 403 0 387 0C371 0 355 0 338.8 0C322.7 0 306.3 0 290.2 0C274 0 258 0 242 0C226 0 210 0 193.8 0C177.7 0 161.3 0 145.2 0C129 0 113 0 96.8 0C80.7 0 64.3 0 48.2 0C32 0 16 0 8 0L0 0Z" fill="#FCBD9D" stroke-linecap="round" stroke-linejoin="miter"></path></svg>