<svg id="visual" viewBox="0 0 1500 300" width="1500" height="300" xmlns="http://www.w3.org/2000/svg" xmlns:xlink="http://www.w3.org/1999/xlink" version="1.1"><path d="M0 275L8 274.5C16 274 32 273 48.2 275.7C64.3 278.3 80.7 284.7 96.8 284.8C113 285 129 279 145.2 277.2C161.3 275.3 177.7 277.7 193.8 279.7C210 281.7 226 283.3 242 279.8C258 276.3 274 267.7 290.2 261.3C306.3 255 322.7 251 338.8 253C355 255 371 263 387 269.8C403 276.7 419 282.3 435.2 286.7C451.3 291 467.7 294 483.8 291C500 288 516 279 532.2 277.3C548.3 275.7 564.7 281.3 580.8 283.5C597 285.7 613 284.3 629 282.7C645 281 661 279 677.2 276.5C693.3 274 709.7 271 725.8 269.7C742 268.3 758 268.7 774.2 264.2C790.3 259.7 806.7 250.3 822.8 251.3C839 252.3 855 263.7 871 270.3C887 277 903 279 919.2 274.7C935.3 270.3 951.7 259.7 967.8 261C984 262.3 1000 275.7 1016.2 275.7C1032.3 275.7 1048.7 262.3 1064.8 263C1081 263.7 1097 278.3 1113 286C1129 293.7 1145 294.3 1161.2 293.3C1177.3 292.3 1193.7 289.7 1209.8 287.7C1226 285.7 1242 284.3 1258 279.8C1274 275.3 1290 267.7 1306.2 263.5C1322.3 259.3 1338.7 258.7 1354.8 260.5C1371 262.3 1387 266.7 1403.2 271.8C1419.3 277 1435.7 283 1451.8 283.3C1468 283.7 1484 278.3 1492 275.7L1500 273L1500 301L1492 301C1484 301 1468 301 1451.8 301C1435.7 301 1419.3 301 1403.2 301C1387 301 1371 301 1354.8 301C1338.7 301 1322.3 301 1306.2 301C1290 301 1274 301 1258 301C1242 301 1226 301 1209.8 301C1193.7 301 1177.3 301 1161.2 301C1145 301 1129 301 1113 301C1097 301 1081 301 1064.8 301C1048.7 301 1032.3 301 1016.2 301C1000 301 984 301 967.8 301C951.7 301 935.3 301 919.2 301C903 301 887 301 871 301C855 301 839 301 822.8 301C806.7 301 790.3 301 774.2 301C758 301 742 301 725.8 301C709.7 301 693.3 301 677.2 301C661 301 645 301 629 301C613 301 597 301 580.8 301C564.7 301 548.3 301 532.2 301C516 301 500 301 483.8 301C467.7 301 451.3 301 435.2 301C419 301 403 301 387 301C371 301 355 301 338.8 301C322.7 301 306.3 301 290.2 301C274 301 258 301 242 301C226 301 210 301 193.8 301C177.7 301 161.3 301 145.2 301C129 301 113 301 96.8 301C80.7 301 64.3 301 48.2 301C32 301 16 301 8 301L0 301Z" fill="#FCBD9D" stroke-linecap="round" stroke-linejoin="miter"></path></svg>