<svg id="visual" viewBox="0 0 1500 300" width="1500" height="300" xmlns="http://www.w3.org/2000/svg" xmlns:xlink="http://www.w3.org/1999/xlink" version="1.1"><path d="M0 218L14.7 209.5C29.3 201 58.7 184 88 176.8C117.3 169.7 146.7 172.3 176.2 163C205.7 153.7 235.3 132.3 264.8 131.7C294.3 131 323.7 151 353 161C382.3 171 411.7 171 441 166.7C470.3 162.3 499.7 153.7 529.2 146.3C558.7 139 588.3 133 617.8 144.2C647.3 155.3 676.7 183.7 706 178.3C735.3 173 764.7 134 794 120.3C823.3 106.7 852.7 118.3 882.2 118.2C911.7 118 941.3 106 970.8 113.2C1000.3 120.3 1029.7 146.7 1059 165C1088.3 183.3 1117.7 193.7 1147 194.7C1176.3 195.7 1205.7 187.3 1235.2 175.7C1264.7 164 1294.3 149 1323.8 145.5C1353.3 142 1382.7 150 1412 152.7C1441.3 155.3 1470.7 152.7 1485.3 151.3L1500 150L1500 0L1485.3 0C1470.7 0 1441.3 0 1412 0C1382.7 0 1353.3 0 1323.8 0C1294.3 0 1264.7 0 1235.2 0C1205.7 0 1176.3 0 1147 0C1117.7 0 1088.3 0 1059 0C1029.7 0 1000.3 0 970.8 0C941.3 0 911.7 0 882.2 0C852.7 0 823.3 0 794 0C764.7 0 735.3 0 706 0C676.7 0 647.3 0 617.8 0C588.3 0 558.7 0 529.2 0C499.7 0 470.3 0 441 0C411.7 0 382.3 0 353 0C323.7 0 294.3 0 264.8 0C235.3 0 205.7 0 176.2 0C146.7 0 117.3 0 88 0C58.7 0 29.3 0 14.7 0L0 0Z" fill="#514033" stroke-linecap="round" stroke-linejoin="miter"></path></svg>