<svg id="visual" viewBox="0 0 1500 300" width="1500" height="300" xmlns="http://www.w3.org/2000/svg" xmlns:xlink="http://www.w3.org/1999/xlink" version="1.1"><path d="M0 6L8 7.5C16 9 32 12 48.2 18.7C64.3 25.3 80.7 35.7 96.8 37.5C113 39.3 129 32.7 145.2 28.2C161.3 23.7 177.7 21.3 193.8 20.5C210 19.7 226 20.3 242 24.5C258 28.7 274 36.3 290.2 34.8C306.3 33.3 322.7 22.7 338.8 17.8C355 13 371 14 387 13C403 12 419 9 435.2 9.3C451.3 9.7 467.7 13.3 483.8 18.3C500 23.3 516 29.7 532.2 28C548.3 26.3 564.7 16.7 580.8 19.3C597 22 613 37 629 45.2C645 53.3 661 54.7 677.2 46.3C693.3 38 709.7 20 725.8 19.2C742 18.3 758 34.7 774.2 35.7C790.3 36.7 806.7 22.3 822.8 23.5C839 24.7 855 41.3 871 44.3C887 47.3 903 36.7 919.2 27C935.3 17.3 951.7 8.7 967.8 11.8C984 15 1000 30 1016.2 35.3C1032.3 40.7 1048.7 36.3 1064.8 33C1081 29.7 1097 27.3 1113 22.5C1129 17.7 1145 10.3 1161.2 11.8C1177.3 13.3 1193.7 23.7 1209.8 25.7C1226 27.7 1242 21.3 1258 20.7C1274 20 1290 25 1306.2 22.5C1322.3 20 1338.7 10 1354.8 7.8C1371 5.7 1387 11.3 1403.2 19.3C1419.3 27.3 1435.7 37.7 1451.8 41C1468 44.3 1484 40.7 1492 38.8L1500 37L1500 0L1492 0C1484 0 1468 0 1451.8 0C1435.7 0 1419.3 0 1403.2 0C1387 0 1371 0 1354.8 0C1338.7 0 1322.3 0 1306.2 0C1290 0 1274 0 1258 0C1242 0 1226 0 1209.8 0C1193.7 0 1177.3 0 1161.2 0C1145 0 1129 0 1113 0C1097 0 1081 0 1064.8 0C1048.7 0 1032.3 0 1016.2 0C1000 0 984 0 967.8 0C951.7 0 935.3 0 919.2 0C903 0 887 0 871 0C855 0 839 0 822.8 0C806.7 0 790.3 0 774.2 0C758 0 742 0 725.8 0C709.7 0 693.3 0 677.2 0C661 0 645 0 629 0C613 0 597 0 580.8 0C564.7 0 548.3 0 532.2 0C516 0 500 0 483.8 0C467.7 0 451.3 0 435.2 0C419 0 403 0 387 0C371 0 355 0 338.8 0C322.7 0 306.3 0 290.2 0C274 0 258 0 242 0C226 0 210 0 193.8 0C177.7 0 161.3 0 145.2 0C129 0 113 0 96.8 0C80.7 0 64.3 0 48.2 0C32 0 16 0 8 0L0 0Z" fill="#413429" stroke-linecap="round" stroke-linejoin="miter"></path></svg>